<svg width="140" height="40" viewBox="0 0 140 40" fill="none" xmlns="http://www.w3.org/2000/svg">
<path d="M21.538 17.0172V38.3743C21.538 39.0106 22.2881 39.3494 22.7674 38.9309C32.0485 30.8245 34.0148 28.2706 34.9447 26.4907C35.6824 25.0788 36.0272 23.4735 36.0272 21.8804V9.30915C36.0272 7.56349 35.7793 5.77411 34.7764 4.3453C33.0741 1.92014 30.7508 0.698226 29.1467 0.216797C28.5231 0.0296564 27.8685 0 27.2174 0H8.16393C7.29196 0 6.40737 0.0472706 5.59395 0.361422C3.31884 1.2401 1.75538 3.12991 0.838173 4.76771C0.16441 5.97081 0 7.36791 0 8.74682V21.8016C0 23.8429 0.375407 25.9385 1.74792 27.4494C2.56504 28.3489 3.48687 29.1143 4.35542 29.7261C5.91501 30.8245 7.83818 31.1765 9.74579 31.1765H14.1381C14.5483 31.1765 14.8808 30.844 14.8808 30.4338V17.0172C14.8808 16.607 14.5483 16.2745 14.1381 16.2745H7.59568C7.18551 16.2745 6.853 15.942 6.853 15.5318V10.3505C6.853 9.94035 7.18551 9.60784 7.59567 9.60784H28.6273C29.0375 9.60784 29.37 9.94035 29.37 10.3505V15.5318C29.37 15.942 29.0375 16.2745 28.6273 16.2745H22.2807C21.8705 16.2745 21.538 16.607 21.538 17.0172Z" fill="#D55200"/>
<path d="M42.0514 23.0656V9.9346H51.3269V12.5794H45.3295V15.0753H50.8985V17.7201H45.3295V20.4208H51.3269V23.0656H42.0514ZM51.7982 23.0656L56.8271 16.4349L51.91 9.9346H55.8772L58.7642 13.9577L61.6512 9.9346H65.637L60.7199 16.4349L65.7302 23.0656H61.7443L58.7642 18.9307L55.7841 23.0656H51.7982ZM66.4611 23.0656V9.9346H68.9755L75.0102 17.4593V9.9346H78.1765V23.0656H75.6807L69.646 15.5409V23.0656H66.4611ZM86.9084 23.2705C85.5798 23.2705 84.4126 22.9911 83.4068 22.4323C82.4135 21.8612 81.6374 21.0665 81.0786 20.0483C80.5199 19.0301 80.2405 17.8443 80.2405 16.4908C80.2405 15.1249 80.5137 13.9391 81.06 12.9333C81.6188 11.9151 82.401 11.1266 83.4068 10.5679C84.4126 10.0091 85.5798 9.72972 86.9084 9.72972C88.2371 9.72972 89.398 10.0091 90.3914 10.5679C91.3972 11.1266 92.1795 11.9151 92.7382 12.9333C93.297 13.9391 93.5764 15.1249 93.5764 16.4908C93.5764 17.8443 93.297 19.0301 92.7382 20.0483C92.1795 21.0665 91.3972 21.8612 90.3914 22.4323C89.398 22.9911 88.2371 23.2705 86.9084 23.2705ZM86.9084 20.4022C87.877 20.4022 88.6344 20.0607 89.1807 19.3778C89.7395 18.6824 90.0189 17.7201 90.0189 16.4908C90.0189 15.2615 89.7457 14.3054 89.1994 13.6225C88.653 12.9395 87.8894 12.5981 86.9084 12.5981C85.9275 12.5981 85.1638 12.9395 84.6175 13.6225C84.0711 14.3054 83.798 15.2615 83.798 16.4908C83.798 17.7201 84.0711 18.6824 84.6175 19.3778C85.1638 20.0607 85.9275 20.4022 86.9084 20.4022ZM93.6893 23.0656L99.8357 9.9346H102.536L108.683 23.0656H105.256L104.12 20.4022H98.2525L97.1164 23.0656H93.6893ZM101.158 13.5107L99.3701 17.776H102.983L101.195 13.5107H101.158ZM109.478 23.0656V9.9346H115.792C117.282 9.9346 118.431 10.3009 119.238 11.0335C120.057 11.7537 120.467 12.7595 120.467 14.0508C120.467 15.0318 120.219 15.8575 119.722 16.528C119.238 17.1861 118.53 17.6456 117.599 17.9063C118.294 18.0926 118.853 18.5706 119.275 19.3405L121.324 23.0656H117.562L115.289 18.8935C115.14 18.6327 114.948 18.4465 114.712 18.3347C114.488 18.223 114.228 18.1671 113.93 18.1671H112.905V23.0656H109.478ZM112.905 15.7458H115.177C116.531 15.7458 117.208 15.2118 117.208 14.144C117.208 13.0885 116.531 12.5608 115.177 12.5608H112.905V15.7458ZM122.629 23.0656V9.9346H126.056V15.5595H126.093L131.196 9.9346H135.257L129.408 16.1742L135.462 23.0656H131.383L126.093 17.1427H126.056V23.0656H122.629Z" fill="#D55200"/>
</svg>
